<?xml version="1.0" encoding="UTF-8" standalone="no"?><svg width="100" height="100" viewBox="0 0 100 100" fill="none" xmlns="http://www.w3.org/2000/svg">
<path d="M50.7888 100C76.3105 100 96.9999 96.2601 96.9999 91.6467C96.9999 87.0332 76.3105 83.2933 50.7888 83.2933C25.2671 83.2933 4.57764 87.0332 4.57764 91.6467C4.57764 96.2601 25.2671 100 50.7888 100Z" fill="#262626"/>
<path d="M79.753 86.7944C79.4113 85.9169 79.2097 84.9868 79.2667 84.048C81.4401 47.0634 76.1468 27.3208 76.1468 27.3208C75.4588 23.2143 49.229 16.9801 44.7682 17.2872C40.3075 17.5943 34.8214 24.5876 30.1941 42.742C25.5625 60.8964 25.2207 84.4911 25.2207 84.4911C25.2207 84.4911 18.0476 85.6318 18.2229 88.0184V91.3571C18.5252 94.0597 41.0656 91.7783 47.3448 89.804C47.3448 89.804 47.1695 77.0371 50.9598 76.8923C53.0061 76.8134 54.0359 80.0512 54.5004 83.3109C54.6406 84.3112 54.5573 85.3422 54.1673 86.2723C53.5276 87.7947 53.8825 91.0281 53.8825 91.0281C59.7367 92.7874 74.5342 92.9672 79.7969 91.0281C79.7969 91.0281 80.3884 88.4177 79.7618 86.79L79.753 86.7944Z" fill="#FFD788"/>
<path d="M31.8943 39.7016C31.8943 39.7016 36.7056 23.0563 44.9435 20.9592C48.7689 19.9852 64.9117 21.5515 64.9117 21.5515L58.0409 19.4193L45.1538 17.1292L41.2671 18.827L36.7494 24.14L33.3403 32.3397L30.8909 40.3333L31.8899 39.7059L31.8943 39.7016Z" fill="#FDFBD0"/>
<path d="M69.3503 23.1881C69.3503 23.1881 75.0774 29.0144 76.6462 37.9117L78.0177 38.3987L75.9538 26.3864L69.3503 23.1881Z" fill="#FDCA51"/>
<path d="M62.9836 88.3606C62.9836 88.3606 66.8616 89.8304 79.9897 87.7991C79.9897 87.7991 82.9825 92.5505 73.1277 92.2916C67.0412 92.1337 62.9836 88.3563 62.9836 88.3563V88.3606Z" fill="#FDCA51"/>
<path d="M49.2201 30.9491C49.0317 33.2524 48.094 35.0468 47.0555 34.959C46.017 34.8713 45.2677 32.9365 45.4605 30.6376C45.6533 28.3387 46.705 26.5399 47.7435 26.6233C48.782 26.7066 49.4086 28.6458 49.2201 30.9491Z" fill="#14131A"/>
<path d="M47.1256 35.1827C47.0949 35.1827 47.0687 35.1827 47.038 35.1827C46.4421 35.1345 45.9294 34.6124 45.592 33.713C45.2721 32.8575 45.1494 31.7607 45.2414 30.6244C45.3334 29.4881 45.6402 28.422 46.0959 27.6323C46.5779 26.7943 47.1782 26.3643 47.7654 26.4126C48.3569 26.4609 48.8477 26.9873 49.1544 27.8911C49.4349 28.7291 49.5356 29.8215 49.4436 30.9709C49.2421 33.4059 48.2561 35.1871 47.13 35.1871L47.1256 35.1827ZM47.6734 26.8425C47.279 26.8425 46.8452 27.2067 46.4727 27.8472C46.0477 28.5843 45.7672 29.5846 45.6752 30.6595C45.5876 31.7343 45.7015 32.7609 45.9995 33.555C46.2712 34.2746 46.6611 34.7089 47.073 34.744C47.0906 34.744 47.1081 34.744 47.1256 34.744C47.9889 34.744 48.8214 33.0593 49.0011 30.9315C49.0931 29.839 48.9967 28.808 48.7338 28.0271C48.4884 27.2988 48.1291 26.8776 47.7259 26.8425C47.7084 26.8425 47.6909 26.8425 47.6734 26.8425Z" fill="#14131A"/>
<path d="M71.5984 62.1248C71.5984 62.1248 70.7702 82.0561 76.0373 85.1974L79.293 85.7326L79.1089 81.6525L79.7706 60.3875L71.594 62.1248H71.5984Z" fill="#FDCA51"/>
<path d="M59.7148 32.0372C59.5264 34.3405 58.5886 35.9769 57.5501 35.8936C56.5116 35.8102 55.7623 34.029 55.9551 31.7257C56.1436 29.4224 57.1996 27.47 58.2381 27.5578C59.2766 27.6455 59.9032 29.7382 59.7148 32.0372Z" fill="#14131A"/>
<path d="M57.6291 36.1173C57.5984 36.1173 57.5633 36.1173 57.5327 36.1173C56.9367 36.069 56.4197 35.5733 56.0866 34.7265C55.7668 33.9149 55.6397 32.8444 55.7361 31.7125C55.8281 30.5806 56.1392 29.4662 56.5862 28.6458C57.0726 27.7552 57.6773 27.2901 58.2557 27.3428C59.5396 27.4481 60.118 29.826 59.9339 32.0591C59.7367 34.4413 58.7771 36.1173 57.6291 36.1173ZM58.1724 27.7771C57.7824 27.7771 57.3442 28.1676 56.9718 28.8564C56.5511 29.6241 56.2619 30.6771 56.1743 31.7476C56.0866 32.8137 56.2006 33.814 56.4985 34.5642C56.7658 35.2398 57.1558 35.6434 57.5721 35.6785C58.4923 35.7487 59.3248 34.1474 59.5001 32.024C59.6798 29.8347 59.0838 27.8517 58.225 27.7815C58.2075 27.7815 58.1943 27.7815 58.1768 27.7815L58.1724 27.7771Z" fill="#14131A"/>
<path d="M27.0565 68.6004C27.0565 68.6004 26.5176 85.5747 24.9883 84.4998L25.7595 67.9116L27.0565 68.6048V68.6004Z" fill="#FDFBD0"/>
<path d="M26.8418 44.1196C30.8293 46.1027 31.1097 49.5159 31.1097 49.5159L28.0512 50.9506L24.9883 44.9883L26.8418 44.1196Z" fill="#D1D3D4"/>
<path d="M28.1609 51.227C28.0382 51.227 27.9199 51.1568 27.863 51.0383C27.7885 50.8716 27.8586 50.6786 28.0207 50.5996L30.7506 49.3185C30.6148 48.5639 29.9487 46.0895 26.8376 44.4838L25.4135 45.1506C25.247 45.2252 25.0542 45.155 24.9753 44.9927C24.9008 44.826 24.9709 44.633 25.1331 44.554L26.7018 43.8169C26.7938 43.7731 26.8989 43.7774 26.9866 43.8169C31.0968 45.857 31.421 49.3361 31.4342 49.4809C31.4473 49.6169 31.3684 49.7485 31.2458 49.8055L28.2968 51.1875C28.2529 51.2094 28.2047 51.2182 28.1565 51.2182L28.1609 51.227Z" fill="#14131A"/>
<path d="M12.0359 58.8389C7.2158 62.2039 3.48245 61.4975 3.43863 59.1372C3.39481 56.654 12.715 52.4379 12.715 52.4379C11.5013 52.2448 9.57762 51.9421 6.82143 51.5078C1.89621 50.7312 4.44646 46.8573 8.38138 45.291C12.3163 43.7248 18.429 44.124 18.429 44.124C18.429 44.124 21.8206 35.1214 24.2306 35.2091C26.6406 35.2969 29.2128 39.785 24.0816 43.7862L24.0509 43.9749C24.0509 43.9749 28.6168 46.7827 28.0121 51.2533C27.8106 52.745 27.0876 53.8374 26.255 54.6008" fill="#F1F2F2"/>
<path d="M12.0359 58.8388C11.9527 58.9967 8.59178 68.6443 11.2253 69.3287C13.5521 69.9298 16.6807 65.7531 16.7946 61.6817C16.7946 61.6817 27.6529 63.441 26.3296 54.8771L26.2595 54.6051" fill="#F1F2F2"/>
<path d="M23.0603 61.0544C23.0603 61.0544 23.8534 57.255 23.8534 56.0134L26.5176 54.9078L26.1276 58.8169L24.2259 60.7604L23.0603 61.0544Z" fill="#D9D9E2"/>
<path d="M14.6076 58.2554C14.6076 58.2554 13.1178 59.1065 10.5281 64.6037L10.9137 61.4756L12.6927 58.3607L13.144 58.2554H14.6076Z" fill="#D9D9E2"/>
<path d="M4.18776 49.9679C4.18776 49.9679 4.11327 51.3367 13.5737 52.4423C14.7612 52.5827 14.2091 50.955 14.2091 50.955C14.2091 50.955 14.862 48.9939 12.4125 50.7049C10.1865 52.258 5.25694 48.7526 4.18776 49.9679Z" fill="#D9D9E2"/>
<path d="M23.5073 55.8424C23.5073 55.8424 26.0619 52.6485 24.8613 49.5949C23.6607 46.5458 21.9342 45.1594 22.5477 43.7424C23.1612 42.3209 25.4222 37.8196 24.594 36.9114C23.7658 36.0032 23.1874 35.6567 23.1874 35.6567C23.1874 35.6567 24.6203 34.6958 25.6939 35.5689C26.7674 36.442 27.3152 38.0609 27.153 39.2498C26.9909 40.4388 25.2644 43.0755 24.6597 43.5274C24.0551 43.9793 25.0979 44.769 25.0979 44.769C25.0979 44.769 28.1302 47.941 28.0864 48.8974C28.0425 49.8538 28.2266 53.6883 25.9261 54.8904C23.6256 56.0969 23.5117 55.8424 23.5117 55.8424H23.5073Z" fill="#D9D9E2"/>
<path d="M14.034 53.5785C14.034 53.5785 11.3084 56.224 6.77759 55.6449L10.7256 53.4074L12.7238 52.5475L14.4809 53.2231L14.034 53.5785Z" fill="#D9D9E2"/>
<path d="M14.2091 53.1135C14.1872 53.1135 14.1653 53.1135 14.139 53.1091L6.75118 51.9421C4.37621 51.5692 3.77151 50.525 3.67949 49.7178C3.49545 48.0638 5.44538 45.9886 8.21472 44.8874C11.7202 43.4922 16.7944 43.6107 18.1309 43.6721C18.9196 41.6277 21.7503 34.7748 24.1954 34.7748C24.2129 34.7748 24.2261 34.7748 24.2436 34.7748C25.545 34.823 26.7895 35.9023 27.2715 37.3984C27.6176 38.4688 28.0251 41.2679 24.3488 44.1328C24.156 44.2819 23.8843 44.2469 23.7353 44.0582C23.5863 43.8695 23.6214 43.5932 23.8098 43.444C27.048 40.9169 26.7281 38.5654 26.4389 37.6704C26.0708 36.5341 25.1375 35.6873 24.2129 35.6522C24.2042 35.6522 24.1998 35.6522 24.191 35.6522C22.7406 35.6522 20.1947 40.6844 18.8364 44.2819C18.7706 44.4618 18.591 44.5803 18.3982 44.5671C18.3368 44.5671 12.3337 44.1942 8.53898 45.7034C6.20345 46.6335 4.41126 48.3928 4.55148 49.6212C4.65665 50.582 6.05885 50.9462 6.88702 51.0734L14.2748 52.2404C14.5158 52.2799 14.678 52.5037 14.6385 52.7406C14.6035 52.9555 14.4194 53.1091 14.2047 53.1091L14.2091 53.1135Z" fill="#14131A"/>
<path d="M6.10258 61.5589C5.39272 61.5589 4.80116 61.4272 4.35421 61.2123C3.49537 60.7999 3.01336 60.0672 3.00022 59.1459C2.95202 56.5047 10.9358 52.7624 12.5352 52.0385C12.7543 51.9376 13.0172 52.0385 13.1136 52.2579C13.2143 52.4772 13.1136 52.7405 12.8945 52.837C9.39336 54.4208 3.84592 57.527 3.87659 59.1283C3.88535 59.7074 4.18332 60.1549 4.73544 60.4182C6.14201 61.0938 9.10854 60.5717 12.579 57.8911C12.7718 57.7419 13.0478 57.777 13.1924 57.9701C13.3414 58.1631 13.3064 58.4395 13.1136 58.5843C10.2654 60.7867 7.82465 61.5545 6.10258 61.5545V61.5589Z" fill="#14131A"/>
<path d="M11.685 69.8245C11.4922 69.8245 11.2994 69.8026 11.1153 69.7543C10.7955 69.671 10.3529 69.4384 10.0725 68.8111C8.91565 66.205 11.6149 58.7028 11.6455 58.637C11.7595 58.422 12.0224 58.3387 12.2371 58.4528C12.443 58.5624 12.5307 58.8125 12.4343 59.0231C12.1845 59.6329 9.91033 66.5121 10.9006 68.5083C11.0452 68.8023 11.2161 68.8725 11.3344 68.9032C11.9917 69.0743 12.8067 68.7452 13.6262 67.9775C15.3132 66.3981 16.803 63.1208 16.2465 60.1638C16.2027 59.9269 16.3561 59.6944 16.5971 59.6505C16.8381 59.6066 17.0659 59.7602 17.1097 60.0015C17.7276 63.2656 16.0888 66.8807 14.2308 68.618C13.3895 69.4077 12.5044 69.8245 11.6937 69.8245H11.685Z" fill="#14131A"/>
<path d="M19.0422 62.2828C17.8021 62.2828 16.8863 62.1424 16.7943 62.1248C16.5577 62.0853 16.3912 61.8616 16.4306 61.6203C16.47 61.3834 16.6935 61.2211 16.9345 61.2562C16.9871 61.2649 22.2848 62.0853 24.7474 59.6373C25.8253 58.5668 26.2109 56.9874 25.8954 54.9429C25.8604 54.7016 26.0225 54.4779 26.2635 54.4428C26.5045 54.4077 26.728 54.57 26.763 54.8113C27.1223 57.1453 26.6535 58.9792 25.3608 60.2646C23.6694 61.945 20.9614 62.2828 19.0378 62.2828H19.0422Z" fill="#14131A"/>
<path d="M22.4033 56.8382C22.1886 56.8382 22.0001 56.6803 21.9695 56.4565C21.9388 56.2152 22.1053 55.9959 22.3463 55.9652C22.5391 55.9389 27.0305 55.2808 27.5826 51.2006C28.1435 47.0722 23.8712 44.3784 23.8274 44.3521C23.6214 44.2249 23.5557 43.9529 23.6828 43.7467C23.8098 43.5405 24.0771 43.4747 24.2831 43.6019C24.4803 43.7247 29.0856 46.6159 28.4502 51.3147C27.8061 56.0617 22.5172 56.8207 22.4602 56.8295C22.4427 56.8295 22.4208 56.8295 22.4033 56.8295V56.8382Z" fill="#14131A"/>
<path d="M14.1784 58.5273C13.9505 58.5273 13.7621 58.3518 13.7402 58.1237C13.7271 57.9482 13.394 53.7364 14.174 49.3799C14.2178 49.143 14.4457 48.9806 14.6823 49.0245C14.9189 49.0684 15.0811 49.2965 15.0372 49.5334C14.2792 53.7715 14.6122 58.0052 14.6166 58.0491C14.6341 58.2904 14.4588 58.501 14.2135 58.5229C14.2003 58.5229 14.1872 58.5229 14.1784 58.5229V58.5273Z" fill="#14131A"/>
<path d="M71.7077 9.52183L66.5371 1.22993C66.1033 0.532356 65.227 0.251572 64.4689 0.567454L55.4554 4.31855C55.0041 4.50721 54.4914 4.48966 54.0532 4.26591L48.2604 1.32645C47.3402 0.857012 46.2184 1.32645 45.9029 2.31358L43.5674 9.6359C43.287 10.5177 43.7733 11.4654 44.6541 11.7462L60.4288 16.7915L76.2079 21.8368C77.0887 22.1176 78.0352 21.6306 78.3156 20.7488L80.6511 13.4265C80.9666 12.4394 80.3225 11.4083 79.3015 11.2548L72.8777 10.2852C72.3913 10.2106 71.9663 9.92985 71.7034 9.51306L71.7077 9.52183Z" fill="#FFD788"/>
<path d="M72.1331 9.97802L73.6273 11.4741L77.2686 13.4659L77.7112 15.0102C77.7112 15.0102 77.308 20.8365 77.4833 21.012C77.6586 21.1874 77.1065 21.8762 77.1065 21.8762L77.9346 21.4024L80.3447 14.4048L80.6952 12.5446L80.0642 11.5706L78.5875 11.0178L72.1418 9.97363L72.1331 9.97802Z" fill="#FDCA51"/>
<path d="M51.8101 3.25684L54.7766 4.95471L60.5037 2.57682L65.2975 0.611328L66.6778 1.40103L58.8123 5.61718C58.2295 5.92868 57.5942 6.12171 56.9369 6.18752L55.4339 6.33669C54.5181 6.42882 53.5979 6.25772 52.7741 5.84093L50.3422 4.61689C48.9575 3.91931 47.2749 4.3712 46.4248 5.66544L43.914 9.49112L43.765 9.99566L43.6292 10.4563L46.0786 2.19074L47.6254 1.32645L51.8013 3.26561L51.8101 3.25684Z" fill="#FDFBD0"/>
<path d="M76.7207 22.3632C76.506 22.3632 76.2869 22.3281 76.0765 22.2623L44.5227 12.1673C43.4097 11.8119 42.7963 10.6186 43.1512 9.5042L45.4867 2.18187C45.6752 1.5896 46.1133 1.11139 46.6874 0.874474C47.2614 0.633176 47.9055 0.659499 48.4576 0.940283L54.2505 3.87974C54.5747 4.04207 54.9516 4.05962 55.289 3.91923L64.3025 0.16374C65.2621 -0.2355 66.3576 0.11548 66.9097 0.997317L72.0803 9.28483C72.2731 9.59194 72.5886 9.80253 72.9479 9.85518L79.3717 10.8248C79.9852 10.9169 80.5241 11.2723 80.8528 11.8031C81.1814 12.3296 81.2603 12.9745 81.0719 13.5668L78.7363 20.8891C78.5654 21.4287 78.193 21.8675 77.6891 22.1263C77.3867 22.2843 77.0537 22.3632 76.7207 22.3632ZM47.5024 1.58521C47.3403 1.58521 47.1781 1.61592 47.0248 1.68173C46.6874 1.82212 46.4332 2.1029 46.3237 2.4495L43.9881 9.77182C43.8874 10.0877 43.9136 10.4255 44.067 10.7195C44.2204 11.0134 44.4745 11.2328 44.79 11.3337L76.3438 21.4287C76.6593 21.5296 76.9967 21.5033 77.2903 21.3498C77.5839 21.1962 77.803 20.9418 77.9038 20.6259L80.2393 13.3036C80.3489 12.957 80.305 12.5797 80.1122 12.2726C79.9194 11.9654 79.6039 11.7549 79.2446 11.7022L72.8208 10.7326C72.2073 10.6405 71.6684 10.2851 71.3397 9.75866L66.1691 1.47114C65.8449 0.953445 65.2051 0.747244 64.6442 0.984156L55.6308 4.73525C55.0611 4.97217 54.4126 4.95023 53.8605 4.66945L48.0677 1.72999C47.8924 1.64224 47.6996 1.59398 47.5068 1.59398L47.5024 1.58521Z" fill="#14131A"/>
<path d="M21.93 89.4882C21.93 89.4882 20.2299 92.5505 34.3789 90.4929C49.2729 88.3256 46.7314 86.8734 46.7314 86.8734C46.7314 86.8734 29.2609 89.5452 21.9257 89.4926L21.93 89.4882Z" fill="#FDCA51"/>
<path d="M52.8044 76.2299C52.8044 76.2299 49.7984 61.5721 45.7321 73.7116C43.3264 80.8979 42.8838 88.5668 45.1317 90.0541C45.7321 90.449 47.2701 89.8655 47.2701 89.8655C47.2701 89.8655 46.7136 84.3682 48.3217 80.3539C50.092 75.9359 50.4776 78.0769 52.8044 76.2343V76.2299Z" fill="#FDCA51"/>
<path d="M67.3699 89.6023C63.4831 89.6023 59.4869 89.3303 56.3758 88.7906C56.1391 88.7512 55.977 88.523 56.0208 88.2817C56.0646 88.0404 56.2925 87.8825 56.5291 87.9263C62.6637 88.9925 72.2863 88.9968 77.5446 87.9263C77.7812 87.8781 78.0134 88.0316 78.0616 88.2686C78.1098 88.5055 77.9565 88.738 77.7198 88.7862C75.0469 89.3259 71.2653 89.5979 67.3742 89.5979L67.3699 89.6023Z" fill="#14131A"/>
<path d="M24.4538 93.033C21.5004 93.033 19.2087 92.7917 18.3192 92.1951C17.9205 91.9274 17.8065 91.6203 17.7846 91.4054C17.7846 91.3878 17.7846 91.3703 17.7846 91.3571V88.0184C17.6094 85.6537 22.7756 84.4823 24.7912 84.1181C24.857 81.2489 25.4748 59.4706 29.769 42.6279C33.9143 26.3775 39.2295 17.2214 44.7375 16.844C49.4129 16.5369 75.8181 22.701 76.5761 27.2462C76.6199 27.4042 81.8519 47.4407 79.7048 84.0743C79.6566 84.8684 79.8143 85.7283 80.1649 86.6364C80.6732 87.957 80.4628 89.7821 80.2919 90.7561C80.2262 91.1377 79.9589 91.4448 79.5996 91.5633C73.8988 93.441 59.9907 93.1515 54.1629 91.5677C53.7422 91.4536 53.4355 91.0807 53.4048 90.6464C53.3172 89.4794 53.2427 87.3384 53.7597 86.1056C54.0971 85.3027 54.2023 84.3551 54.0665 83.3723C53.5231 79.5247 52.4145 77.3267 51.0298 77.3267C51.0123 77.3267 50.9948 77.3267 50.9773 77.3267C48.8038 77.41 47.8092 83.4469 47.7829 89.3916C47.7829 89.8347 47.4937 90.2164 47.0642 90.3393C42.6561 91.6028 31.6138 93.0243 24.4582 93.0243L24.4538 93.033ZM18.6566 91.3176C18.6698 91.3483 18.7092 91.401 18.8056 91.4624C21.3953 93.1998 40.3644 91.3483 46.8145 89.5013C46.8671 89.4881 46.8977 89.4443 46.8977 89.3916C46.9153 85.5484 47.3403 76.5896 50.9334 76.4536C50.9641 76.4536 50.9948 76.4536 51.0255 76.4536C52.9447 76.4536 54.2943 78.8008 54.9253 83.2539C55.0874 84.3945 54.9604 85.5001 54.5616 86.4478C54.0884 87.5797 54.2198 89.8962 54.2724 90.5806C54.2768 90.6508 54.325 90.7078 54.3863 90.7253C60.0433 92.2565 73.8944 92.5197 79.3235 90.7297C79.3761 90.7122 79.4156 90.6639 79.4243 90.6025C79.5514 89.8918 79.7924 88.1149 79.3411 86.9523C78.9467 85.9257 78.7714 84.9386 78.824 84.0216C80.9667 47.546 75.7698 27.6279 75.7173 27.4305C75.0994 23.7364 49.4567 17.4056 44.7944 17.7215C42.4151 17.8838 36.2717 20.6566 30.6147 42.8473C26.1321 60.427 25.6764 83.4469 25.6588 84.4209C25.6545 84.6753 25.4704 84.8947 25.2163 84.9342C22.5214 85.3904 18.5515 86.5794 18.6566 87.9833V91.3176Z" fill="#14131A"/>
<path d="M24.8089 89.9269C22.5347 89.9269 20.6373 89.7602 19.4192 89.3741C19.1869 89.2996 19.0598 89.0539 19.1343 88.8257C19.2088 88.5932 19.4542 88.466 19.6821 88.5406C23.078 89.6154 32.4815 88.8257 39.7817 87.6412C40.0183 87.6017 40.2462 87.764 40.2856 88.0053C40.325 88.2422 40.1629 88.4704 39.9219 88.5098C34.9003 89.3259 29.16 89.9313 24.8045 89.9313L24.8089 89.9269Z" fill="#14131A"/>
<path d="M76.6549 72.4042L77.2815 72.6981C77.6452 72.8692 78.1185 72.6806 78.1448 72.3559L78.342 69.9824C78.3595 69.7806 78.1886 69.5963 77.9344 69.5393L77.3648 69.4121C77.0186 69.3331 76.6681 69.5174 76.6374 69.7894L76.3876 72.0006C76.3701 72.1629 76.4753 72.3208 76.6593 72.4086L76.6549 72.4042Z" fill="#14131A"/>
<path d="M30.9741 68.2363L8.14453 79.9459L13.9198 66.1041L30.9741 68.2363Z" fill="#75491F"/>
<path d="M8.1445 80.3847C8.03495 80.3847 7.92979 80.3452 7.84653 80.2662C7.71069 80.139 7.66687 79.946 7.74137 79.7749L13.5167 65.9331C13.5912 65.7488 13.7796 65.6435 13.9768 65.6655L31.031 67.7977C31.2238 67.8196 31.3728 67.9688 31.4078 68.1574C31.4429 68.3461 31.3465 68.5347 31.1756 68.6225L8.34606 80.332C8.28472 80.3628 8.21461 80.3803 8.1445 80.3803V80.3847ZM14.1959 66.5824L9.00772 79.0071L29.5061 68.4952L14.1915 66.5824H14.1959Z" fill="#14131A"/>
<path d="M46.5294 54.6051L46.2314 50.9549L67.5624 40.7239L69.5517 59.8391L47.8922 71.5531L46.5294 54.6051Z" fill="#A56734"/>
<path d="M46.2317 50.9549L67.5626 40.7239L35.2726 38.3547L13.4465 47.4276L46.2317 50.9549Z" fill="#FFB321"/>
<path d="M13.4465 47.4276L46.2317 50.955L46.8013 57.9833L47.8924 71.5531L42.4983 70.6844L13.9198 66.1041L13.7971 61.2518L13.4465 47.4276Z" fill="#DB982C"/>
<path d="M47.8926 71.9918C47.8707 71.9918 47.8444 71.9918 47.8225 71.9874L13.8455 66.5384C13.622 66.5033 13.4642 66.3059 13.4774 66.0821L13.0042 47.4363C13.0042 47.2565 13.1049 47.0897 13.2758 47.0195L35.1019 37.9511C35.1676 37.9248 35.2334 37.916 35.3035 37.9204L67.5934 40.2895C67.8038 40.3071 67.9747 40.4694 67.9966 40.68L69.9859 59.7908C70.0035 59.9663 69.9158 60.1374 69.7581 60.2208L48.0985 71.9347C48.0328 71.9698 47.9627 71.9874 47.8882 71.9874L47.8926 71.9918ZM14.345 65.7312L47.8137 71.0968L69.0833 59.5934L67.1596 41.1406L35.3429 38.8066L13.8893 47.7215L14.345 65.7356V65.7312Z" fill="#14131A"/>
<path d="M47.8923 71.5531L59.088 83.9207L80.362 67.5475L69.5519 59.8391L47.8923 71.5531Z" fill="#DB9339"/>
<path d="M59.0879 84.3595C58.9696 84.3595 58.8513 84.3112 58.7637 84.2147L47.5724 71.847C47.4804 71.7461 47.4409 71.6101 47.4672 71.4785C47.4935 71.3469 47.5724 71.2328 47.6907 71.167L69.3503 59.4531C69.4992 59.3741 69.6789 59.3829 69.8147 59.4838L80.6248 67.1966C80.7387 67.2755 80.8045 67.4071 80.8088 67.5475C80.8088 67.6879 80.7475 67.8195 80.6379 67.9029L59.3596 84.2761C59.2807 84.3375 59.1843 84.3683 59.0923 84.3683L59.0879 84.3595ZM48.5934 71.6716L59.1405 83.3241L79.6257 67.5607L69.5212 60.3524L48.5934 71.6716Z" fill="#14131A"/>
<g opacity="0.61">
<path d="M53.361 69.0217C53.2339 69.0129 66.454 62.0767 66.454 62.0767L69.6747 62.6953L73.0137 62.454L75.7699 64.4195C75.7699 64.4195 68.8421 68.0214 66.1867 67.2053C66.1867 67.2053 58.2906 69.4034 53.361 69.0173V69.0217Z" fill="#5E3A13"/>
</g>
<path d="M59.0879 84.3595C58.9696 84.3595 58.8513 84.3112 58.7637 84.2147L47.5724 71.847C47.4804 71.7461 47.4409 71.6101 47.4672 71.4785C47.4935 71.3469 47.5724 71.2328 47.6907 71.167L69.3503 59.4531C69.4992 59.3741 69.6789 59.3829 69.8147 59.4838L80.6248 67.1966C80.7387 67.2755 80.8045 67.4071 80.8088 67.5475C80.8088 67.6879 80.7475 67.8195 80.6379 67.9029L59.3596 84.2761C59.2807 84.3375 59.1843 84.3683 59.0923 84.3683L59.0879 84.3595ZM48.5934 71.6716L59.1405 83.3241L79.6257 67.5607L69.5212 60.3524L48.5934 71.6716Z" fill="#14131A"/>
<path d="M47.8926 71.9918C47.6647 71.9918 47.4763 71.8163 47.4544 71.5882L45.7937 50.99C45.7761 50.7487 45.9558 50.5381 46.1968 50.5162C46.4422 50.4986 46.6481 50.6785 46.67 50.9198L48.3308 71.518C48.3483 71.7593 48.1686 71.9698 47.9276 71.9918C47.9145 71.9918 47.9057 71.9918 47.8926 71.9918Z" fill="#14131A"/>
<path d="M46.2318 51.3936C46.0697 51.3936 45.9119 51.3015 45.8374 51.1435C45.7323 50.9242 45.8243 50.6653 46.0434 50.56L67.3743 40.329C67.5934 40.2237 67.8563 40.3158 67.9571 40.5352C68.0623 40.7545 67.9702 41.0134 67.7512 41.1187L46.4202 51.3497C46.3589 51.3804 46.2932 51.3936 46.2318 51.3936Z" fill="#14131A"/>
<path d="M46.2318 51.3937C46.2318 51.3937 46.2011 51.3937 46.1836 51.3937L13.3941 47.8664C13.1531 47.8401 12.9778 47.6251 13.0041 47.3838C13.0304 47.1425 13.2451 46.967 13.4861 46.9933L46.2756 50.5207C46.5166 50.547 46.6919 50.762 46.6656 51.0033C46.6437 51.227 46.4509 51.3937 46.2318 51.3937Z" fill="#14131A"/>
<g opacity="0.2">
<path d="M49.1281 48.6868C49.1281 48.6868 49.8906 55.2676 54.0884 55.2984L48.4314 60.4709C48.4314 60.4709 48.4927 64.516 56.2136 63.4894L67.4355 60.1068L60.0915 51.9816L49.1281 48.6912V48.6868Z" fill="#14131A"/>
</g>
<path fill-rule="evenodd" clip-rule="evenodd" d="M26.176 50.6874L34.0195 51.6175C36.1272 51.8632 37.8098 53.561 37.9676 55.7152L38.3138 63.8009C38.4715 65.9594 36.894 67.473 34.782 67.1834L26.9297 66.1042C24.822 65.8146 22.9816 63.8667 22.8239 61.7564L22.6749 54.0173C22.5171 51.9027 24.0639 50.4373 26.1716 50.683L26.176 50.6874ZM30.9128 59.7646L32.8802 60.0147C32.8802 60.0147 32.9022 60.0103 32.9022 60.0015L33.6339 56.1758C33.6339 56.1758 33.6252 56.1451 33.6076 56.1407L26.6974 55.294C26.6974 55.294 26.6711 55.3072 26.6755 55.3203L28.792 61.9626C28.792 61.9626 28.8051 61.9846 28.8183 61.9846L34.9529 62.7918C34.9529 62.7918 34.9792 62.805 34.9792 62.8181L35.0843 64.2308C35.0843 64.2308 35.0756 64.2528 35.0624 64.2528L27.8148 63.2876C27.8148 63.2876 27.7929 63.2788 27.7885 63.2656L25.5362 56.1407C25.5362 56.1407 25.5231 56.1188 25.5099 56.1188L24.7256 56.0223C24.7256 56.0223 24.6993 56.0047 24.6993 55.9916L25.0805 53.6926C25.0805 53.6926 25.0893 53.6751 25.1024 53.6751L35.3209 54.9079C35.3209 54.9079 35.3472 54.9255 35.3472 54.943L34.1773 61.3001C34.1773 61.3001 34.1641 61.3177 34.1554 61.3177L29.8129 60.7561C29.8129 60.7561 29.791 60.7473 29.7867 60.7342L28.6167 57.0006C28.6167 57.0006 28.6211 56.9699 28.6386 56.9743L31.8987 57.3779C31.8987 57.3779 31.925 57.3955 31.925 57.413L31.6884 58.7775C31.6884 58.7775 31.6752 58.795 31.6665 58.795L30.5666 58.6546C30.5666 58.6546 30.5403 58.6678 30.5447 58.681L30.8953 59.7514C30.8953 59.7514 30.9084 59.7734 30.9216 59.7734L30.9128 59.7646Z" fill="#A56734"/>
<path d="M75.7741 46.6203C80.4057 50.797 75.2439 53.1836 75.2439 53.1836L76.8564 62.217C96.2374 51.6569 75.7741 37.0298 75.7741 37.0298" fill="#FFD788"/>
<path d="M75.647 37.3018C75.647 37.3018 87.4736 49.7177 81.3653 55.7283C77.6057 59.4267 77.4786 59.6636 77.4786 59.6636V62.0766L81.9569 58.5361L84.8883 54.4384L85.1994 49.1913L83.6264 45.212L79.6476 40.4475L75.9537 36.907L75.6557 37.3018H75.647Z" fill="#FDCA51"/>
<g opacity="0.22">
<path d="M75.3358 46.2211C75.3051 46.7124 77.1061 51.0427 73.697 48.9368C73.4647 48.792 75.9492 52.4904 75.9492 52.4904L77.3821 50.4065L76.9571 47.4495L75.3402 46.2255L75.3358 46.2211Z" fill="#14131A"/>
</g>
<path d="M76.8566 62.6557C76.7032 62.6557 76.5498 62.5723 76.471 62.4276C76.357 62.2126 76.4359 61.9494 76.6462 61.8309C81.7905 59.0274 84.5117 55.6975 84.7439 51.9245C85.204 44.4047 75.6165 37.4553 75.5201 37.3851C75.3229 37.2448 75.2791 36.9684 75.4193 36.7753C75.5595 36.5823 75.8356 36.534 76.0284 36.6744C76.4403 36.9684 86.1023 43.9704 85.6159 51.9771C85.3661 56.0704 82.4916 59.646 77.0625 62.6031C76.9968 62.6382 76.9223 62.6557 76.8522 62.6557H76.8566Z" fill="#14131A"/>
<path d="M75.0208 53.346C74.8542 53.346 74.6965 53.2538 74.622 53.0915C74.5212 52.8721 74.6176 52.6133 74.8367 52.508C74.8542 52.4992 76.7823 51.5823 77.0189 50.0117C77.1723 48.985 76.5807 47.8619 75.2574 46.6686C75.0777 46.5062 75.0646 46.2298 75.2267 46.05C75.3888 45.8701 75.6649 45.8569 75.8446 46.0193C77.4001 47.4232 78.0837 48.8139 77.8821 50.1477C77.571 52.1877 75.2968 53.2626 75.2004 53.3065C75.1391 53.3328 75.0777 53.346 75.0164 53.346H75.0208Z" fill="#14131A"/>
<path d="M66.0683 66.0471C67.7553 66.5472 70.7569 66.1875 72.8514 63.4849L77.1982 62.8049C77.1982 62.8049 78.9773 54.0875 73.5744 49.1079L69.4993 49.6212C69.4993 49.6212 66.5196 39.0523 64.3944 39.1576C62.2736 39.2629 58.3869 44.4925 62.9002 49.1869C62.9002 49.1869 58.1152 47.1644 54.3994 46.9143C50.6792 46.6642 47.1912 48.0945 50.8501 51.3323C54.5045 54.5657 59.5086 54.6051 59.5086 54.6051C59.5086 54.6051 49.0579 55.5221 48.405 58.3606C47.0641 64.1825 62.4664 60.835 62.4664 60.835C62.3262 60.9403 51.4022 63.4016 51.9631 66.1041C52.651 69.3902 56.2266 68.3767 64.1315 66.3235" fill="#F1F2F2"/>
<path d="M73.6797 59.3434C73.6797 59.3434 61.4631 67.0562 52.1166 65.5733C52.1166 65.5733 51.9983 66.964 52.7213 67.337C53.4443 67.7099 57.274 67.8985 58.9128 67.5344C60.5517 67.1702 65.3498 65.9243 65.3498 65.9243L68.0096 66.2138L71.9226 64.6827L73.132 63.3095V63.1954L73.6797 59.3478V59.3434Z" fill="#D9D9E2"/>
<path d="M61.1956 42.3647L62.1509 40.8774C61.9931 42.8824 62.4357 46.458 63.2069 49.1913H63.0448L61.1387 46.7125C61.1387 46.7125 59.8942 43.6502 61.1912 42.3603L61.1956 42.3647Z" fill="#D9D9E2"/>
<path d="M72.6895 63.0067C72.6895 63.0067 70.4285 64.959 65.7004 65.5294L66.9011 65.9242L69.8632 65.6083L72.2119 64.1869L72.6895 63.0023V63.0067Z" fill="#D9D9E2"/>
<path d="M73.6927 58.9573L77.4786 59.4881L76.9616 62.7084L73.1318 63.1954L73.6927 58.9573Z" fill="#D9D9E2"/>
<path d="M55.2803 68.39C54.1892 68.39 53.2909 68.2232 52.6468 67.8196C52.0552 67.4511 51.6784 66.9027 51.5294 66.1919C51.2446 64.8187 52.9097 63.4938 56.7132 62.1162C53.5626 62.3707 50.0308 62.2654 48.5892 60.8C47.9407 60.1419 47.7347 59.2908 47.9713 58.2598C48.4446 56.1934 53.0105 55.0966 56.2662 54.5701C54.5354 54.1314 52.3883 53.289 50.5479 51.6614C49.0975 50.3803 48.5717 49.2308 48.9836 48.2437C49.6233 46.7126 52.305 46.3353 54.4171 46.4756C56.9016 46.6424 59.8024 47.5637 61.5332 48.1911C60.28 46.2738 60.0127 44.1065 60.8277 42.0577C61.5595 40.215 63.08 38.776 64.3639 38.7146C66.5461 38.5918 68.9693 46.2343 69.8062 49.1343L73.5089 48.6693C73.6403 48.6561 73.763 48.6956 73.8594 48.7833C79.3806 53.8725 77.6892 62.5242 77.6147 62.8927C77.5796 63.0726 77.435 63.2086 77.251 63.2393L73.0707 63.893C70.9761 66.4508 67.5583 66.7623 65.7705 66.3455C61.6252 67.4248 57.8787 68.39 55.2672 68.39H55.2803ZM62.4622 60.392C62.6331 60.392 62.7908 60.4885 62.8609 60.6509C62.9486 60.8395 62.8872 61.0633 62.7251 61.1861C62.6375 61.2519 62.6287 61.2519 61.9977 61.4186C52.9623 63.8184 52.27 65.4286 52.3927 66.0121C52.4934 66.4859 52.7301 66.8325 53.1157 67.0738C54.9955 68.2408 60.1836 66.8939 65.6785 65.4681C65.753 65.4505 65.8274 65.4505 65.8976 65.4681C67.2165 65.8146 70.5686 65.7137 72.5054 63.2174C72.5755 63.1296 72.6719 63.0682 72.7859 63.0507L76.8216 62.4189C77.0582 60.8878 77.8688 53.8287 73.4256 49.5687L69.5564 50.0556C69.3417 50.082 69.1401 49.9503 69.0788 49.7398C67.6985 44.8436 65.5339 39.592 64.434 39.592C64.4296 39.592 64.4209 39.592 64.4165 39.592C63.6015 39.6315 62.3132 40.7108 61.6515 42.3823C61.1389 43.6722 60.6656 46.2256 63.2159 48.8799C63.3605 49.029 63.378 49.2615 63.2597 49.4326C63.1414 49.6038 62.9179 49.6696 62.7295 49.5862C62.6813 49.5687 57.9708 47.59 54.3689 47.3487C52.0903 47.1908 50.1623 47.7128 49.803 48.5771C49.562 49.1606 50.0352 50.0205 51.1394 50.9989C54.623 54.0831 59.465 54.1621 59.5132 54.1621C59.7454 54.1621 59.9382 54.3508 59.947 54.5833C59.9558 54.8158 59.7805 55.0176 59.5482 55.0396C55.6309 55.3818 49.2596 56.6146 48.8346 58.4528C48.6681 59.1811 48.7951 59.7471 49.2202 60.1814C51.2709 62.261 59.408 61.0457 62.3745 60.4008C62.4052 60.3964 62.4359 60.392 62.4666 60.392H62.4622Z" fill="#14131A"/>
<path d="M72.8516 63.9281C72.7946 63.9281 72.7377 63.9193 72.6851 63.893C72.4616 63.8008 72.3565 63.542 72.4485 63.3182C72.5799 62.998 75.6122 55.4343 69.2147 49.9591C69.0306 49.8011 69.0087 49.5247 69.1665 49.3405C69.3242 49.1562 69.6003 49.1342 69.7843 49.2922C76.6726 55.193 73.2898 63.5727 73.2547 63.656C73.1846 63.8228 73.0225 63.9281 72.8516 63.9281Z" fill="#14131A"/>
<path d="M44.7023 20.6303C44.2904 20.898 42.6516 21.8807 43.62 22.1966C44.5884 22.5125 47.774 21.4332 47.8135 21.0515C47.8529 20.6698 45.5349 20.0907 44.7023 20.6303Z" fill="white"/>
<path d="M41.6966 22.4291C41.495 22.5914 40.7151 23.1881 41.0919 23.4645C41.4687 23.7409 42.9148 23.1661 42.9673 22.8985C43.0199 22.6309 42.0953 22.0956 41.6922 22.4291H41.6966Z" fill="white"/>
<path d="M47.8355 3.87537C47.6339 4.03769 46.854 4.63436 47.2308 4.91076C47.6077 5.18715 49.0537 4.61242 49.1063 4.3448C49.1588 4.07718 48.2343 3.54194 47.8311 3.87537H47.8355Z" fill="white"/>
<path d="M60.1573 5.63462C60.5561 5.31435 62.6944 4.3316 61.5989 4.25702C60.4991 4.18244 57.2521 5.79694 57.274 6.13476C57.2959 6.47258 59.351 6.27515 60.1617 5.63023L60.1573 5.63462Z" fill="white"/>
<path d="M21.9519 87.3691C21.8686 87.3954 21.093 88.3255 22.6705 88.3255C24.248 88.3255 31.1319 88.5931 31.2151 87.8473C31.2984 87.1015 25.212 86.3337 21.9519 87.3691Z" fill="#14131A"/>
<path d="M26.5745 88.5932C25.7726 88.5932 24.8524 88.5845 23.8008 88.5625C23.3188 88.5538 22.9244 88.545 22.6702 88.545C21.9385 88.545 21.5353 88.3476 21.474 87.9571C21.4214 87.6149 21.715 87.2113 21.8815 87.1586C24.7954 86.2373 30.2903 86.7023 31.2455 87.4877C31.4164 87.628 31.4427 87.7728 31.4296 87.8693C31.3726 88.387 30.1676 88.5889 26.5701 88.5889L26.5745 88.5932ZM22.0524 87.571C21.991 87.6368 21.8771 87.8167 21.9122 87.9132C21.9472 88.0054 22.1619 88.1106 22.6702 88.1106C22.9288 88.1106 23.3231 88.1194 23.8095 88.1282C25.4483 88.1589 30.3429 88.2466 30.9695 87.8255C30.4174 87.2815 25.1723 86.6014 22.0524 87.571Z" fill="#14131A"/>
<path d="M62.2297 86.3908C62.129 86.4171 61.2175 87.0708 63.093 87.3472C64.9684 87.6236 73.2764 87.6149 73.3772 86.869C73.478 86.1232 66.1559 85.3554 62.2254 86.3908H62.2297Z" fill="#14131A"/>
<path d="M67.2738 87.7332C65.4246 87.7332 63.7245 87.663 63.0628 87.5665C62.4932 87.4832 61.7307 87.312 61.7001 86.8119C61.6825 86.4653 62.0506 86.2152 62.1733 86.1801C65.7621 85.2369 72.5364 85.7502 73.4478 86.5574C73.5925 86.6847 73.6056 86.8119 73.5968 86.8997C73.5837 86.9962 73.5311 87.0839 73.4347 87.1541C72.8607 87.5884 69.9204 87.7376 67.2738 87.7376V87.7332ZM62.3004 86.5969C62.2347 86.632 62.1339 86.7373 62.1383 86.7812C62.1383 86.7812 62.1952 86.9918 63.1242 87.1278C65.0916 87.4173 72.2209 87.3384 73.1104 86.8426C72.3436 86.2986 66.025 85.623 62.296 86.5969H62.3004Z" fill="#14131A"/>
<path d="M21.4171 87.1189C21.1279 87.3032 20.7467 87.7551 21.4215 87.9788C22.0963 88.2026 24.1514 87.2023 24.1821 86.9391C24.2128 86.6758 21.9999 86.746 21.4171 87.1189Z" fill="white"/>
<path d="M62.0415 86.1407C61.7129 86.3206 61.2791 86.7505 62.0459 86.9655C62.8127 87.1805 65.1614 86.2196 65.1921 85.9696C65.2227 85.7195 62.7032 85.7853 62.0415 86.1451V86.1407Z" fill="white"/>
<path d="M20.7514 46.2474L34.0503 40.7151C34.5849 40.4913 35.1852 40.3114 35.7943 40.193L37.5909 39.8376C37.959 39.763 38.0904 39.9385 37.7662 40.0745L24.4278 45.8043C23.8406 46.0587 23.1702 46.2562 22.4954 46.3834L20.9091 46.4975C20.541 46.5677 20.4271 46.3878 20.7514 46.2518V46.2474Z" fill="white"/>
<path d="M73.7761 33.9149L74.3545 34.301C74.6919 34.5247 75.0293 34.1737 74.9723 33.6516L74.5648 29.8742C74.5298 29.554 74.3501 29.2819 74.131 29.2249L73.6402 29.0933C73.3423 29.0143 73.1013 29.3434 73.1407 29.7821L73.4606 33.3051C73.4825 33.5683 73.6052 33.8052 73.7761 33.9149Z" fill="#14131A"/>
<path d="M76.3263 17.3661L76.7251 17.9365C76.9573 18.2699 77.3999 18.0593 77.5357 17.5548L78.5216 13.887C78.6049 13.5755 78.5348 13.2553 78.3507 13.1237L77.9388 12.8209C77.6891 12.6367 77.3473 12.8604 77.2246 13.2816L76.2518 16.6817C76.1773 16.9362 76.208 17.1994 76.3263 17.3661Z" fill="#14131A"/>
<path d="M76.0679 80.3934L77.0363 81.7754C77.2729 82.1176 77.8075 81.9597 77.825 81.5429L78.0879 74.6681C78.0923 74.5101 78.0134 74.3609 77.8776 74.282L76.7164 73.5756C76.4272 73.4001 76.0635 73.6063 76.0591 73.9398L75.989 80.139C75.989 80.2311 76.0153 80.3188 76.0679 80.3934Z" fill="#14131A"/>
<path d="M26.7237 46.322C27.0261 45.7429 28.9409 45.3787 29.1995 45.3349C29.458 45.291 28.5115 46.322 28.3406 46.3659C28.1697 46.4097 26.36 47.0152 26.7237 46.322Z" fill="white"/>
<path d="M46.5079 79.0727C46.6482 78.0461 47.0907 76.5238 48.4141 75.5893C48.7252 75.3699 48.7383 74.9093 48.4228 74.6943L48.3702 74.6592C48.1731 74.5232 47.9058 74.5319 47.7217 74.6855C47.0338 75.2558 45.4694 76.7387 45.1452 78.634C45.1145 78.8227 45.1759 79.0113 45.3161 79.1386L45.6097 79.4018C45.9339 79.6957 46.4466 79.5027 46.5079 79.0727Z" fill="#14131A"/>
<path d="M82.9824 90.8569C82.9824 90.8569 79.9984 71.1889 85.4012 78.0856C90.8041 84.9824 82.9824 90.8569 82.9824 90.8569Z" fill="#004C34"/>
<path d="M82.9824 91.2956C82.9254 91.2956 82.8685 91.2868 82.8159 91.2649C82.6713 91.2078 82.5705 91.0762 82.5486 90.9227C82.0666 87.7463 80.6775 77.3003 83.0525 76.2736C84.1611 75.7954 85.353 77.3178 85.743 77.8136C87.3117 79.8142 87.9602 81.9288 87.6754 84.1049C87.132 88.2464 83.4031 91.0894 83.2453 91.2078C83.1664 91.2649 83.0744 91.2956 82.9824 91.2956ZM83.5038 77.059C83.4644 77.059 83.4294 77.0677 83.4031 77.0765C82.255 77.5723 82.4566 84.0215 83.3023 90.0057C84.3408 89.0537 86.4397 86.8118 86.8078 83.982C87.0619 82.0517 86.4704 80.1607 85.055 78.3532C84.3013 77.3924 83.7799 77.0546 83.5038 77.0546V77.059Z" fill="#14131A"/>
<path d="M83.022 90.8175C83.022 90.8175 89.7744 81.1173 93.6524 82.587C104.077 86.5399 83.022 90.8175 83.022 90.8175Z" fill="#006634"/>
<path d="M83.0218 91.2563C82.8772 91.2563 82.737 91.1817 82.6538 91.0589C82.5574 90.9097 82.5574 90.7123 82.6625 90.5675C83.3724 89.5453 89.7305 80.6347 93.8056 82.1791C96.0316 83.0214 97.0701 83.9691 96.9825 85.0703C96.7195 88.3256 85.3793 90.7912 83.1095 91.2519C83.0788 91.2563 83.0525 91.2607 83.0218 91.2607V91.2563ZM92.7846 82.8722C90.1117 82.8722 86.0935 87.435 84.0472 90.1507C89.0425 89.0363 95.9571 86.8646 96.1061 84.9957C96.1587 84.3639 95.2297 83.6576 93.4945 82.9995C93.271 82.9161 93.0344 82.8766 92.7846 82.8766V82.8722Z" fill="#14131A"/>
<path d="M82.9824 90.8569C82.9824 90.8569 83.5126 72.2813 89.1302 71.2722C104.243 68.5609 82.9824 90.8569 82.9824 90.8569Z" fill="#008634"/>
<path d="M82.9825 91.2957C82.9255 91.2957 82.8686 91.2825 82.816 91.2606C82.6495 91.1904 82.5399 91.0237 82.5443 90.8438C82.5662 90.0717 83.149 71.8997 89.0558 70.8423C92.1099 70.2939 93.9459 70.6932 94.6777 72.0576C97.0702 76.5194 84.7177 89.6768 83.298 91.1641C83.2147 91.2518 83.0964 91.3001 82.9825 91.3001V91.2957ZM91.3694 71.4873C90.6595 71.4873 89.8971 71.5838 89.2091 71.7066C85.1866 72.4261 83.7625 84.0085 83.4689 89.6987C87.5659 85.2501 95.5628 75.563 93.9065 72.4744C93.5077 71.7286 92.4999 71.4916 91.3694 71.4916V71.4873Z" fill="#14131A"/>
<path d="M92.6136 74.1371C92.4865 75.1681 92.1623 76.7124 91.3253 77.7654C91.1282 78.0154 91.1019 78.4673 91.2815 78.6516L91.3122 78.6823C91.4261 78.7964 91.5882 78.7613 91.7066 78.5945C92.1447 77.9628 93.1482 76.3483 93.4199 74.4442C93.4462 74.2556 93.4199 74.0757 93.3366 73.9616L93.1701 73.7291C92.9861 73.4702 92.6706 73.7115 92.618 74.1415L92.6136 74.1371Z" fill="#14131A"/>
<path d="M94.4804 84.6928C94.419 85.0614 94.1912 85.5834 93.4419 85.8204C93.2666 85.8774 93.2666 86.0441 93.455 86.1494L93.4857 86.1669C93.604 86.2328 93.7574 86.2503 93.8625 86.2108C94.2481 86.0573 95.1289 85.6405 95.2779 84.9692C95.291 84.9034 95.256 84.8288 95.1727 84.7674L94.9974 84.6446C94.8046 84.5086 94.511 84.5393 94.4848 84.6928H94.4804Z" fill="#14131A"/>
</svg>
