<?xml version="1.0" encoding="UTF-8" standalone="no"?><svg xmlns="http://www.w3.org/2000/svg" width="310" height="120" fill="none">
  <g clip-path="url(#a)">
    <path fill="#4783FF" d="M0 0h310v120H0z"/>
    <path fill="#3A67C6" d="M215.13 110.24h-15.9a.2.2 0 0 1-.19-.15l-2.19-8.27a.2.2 0 0 1 .2-.25h8.89a.2.2 0 0 0 .2-.15l2.77-11.22a.2.2 0 0 0-.2-.25H182.4a.2.2 0 0 0-.2.25l7.29 28.92c.02.09.1.15.2.15h35.08a.2.2 0 0 0 .2-.15l13.4-52.07a.2.2 0 0 0-.2-.25h-82.6a.2.2 0 0 0-.19.15L150.84 86a.2.2 0 0 0 .2.25h6.34c.09 0 .17.06.2.15l14 55.38c.02.08.1.15.19.15h58.58a.2.2 0 0 0 .2-.2v-11.2a.2.2 0 0 0-.2-.2h-49.59a.2.2 0 0 1-.2-.14l-13.2-51.54a.2.2 0 0 1 .2-.25h55.86a.2.2 0 0 1 .2.25l-8.3 31.45a.2.2 0 0 1-.19.15ZM95.35 15.1h15.9c.08 0 .16.07.19.15l2.19 8.27a.2.2 0 0 1-.2.25h-8.89a.2.2 0 0 0-.2.15l-2.77 11.22a.2.2 0 0 0 .2.25h26.32a.2.2 0 0 0 .2-.25L121 6.22a.2.2 0 0 0-.2-.15H85.72a.2.2 0 0 0-.2.15L72.13 58.3a.2.2 0 0 0 .2.25h82.6a.2.2 0 0 0 .19-.15l4.53-19.04a.2.2 0 0 0-.2-.25h-6.34a.2.2 0 0 1-.2-.15l-14-55.37a.2.2 0 0 0-.19-.16H80.13a.2.2 0 0 0-.2.2v11.2c0 .1.1.2.2.2h49.59c.09 0 .17.06.2.15l13.2 51.53a.2.2 0 0 1-.2.25H87.06a.2.2 0 0 1-.2-.25l8.3-31.45a.2.2 0 0 1 .19-.15Z"/>
    <path fill="#3A67C6" d="M67.78 15.1h-15.9a.2.2 0 0 0-.2.15l-2.19 8.27a.2.2 0 0 0 .2.25h8.9c.08 0 .16.06.19.15l2.77 11.22a.2.2 0 0 1-.2.25H35.04a.2.2 0 0 1-.2-.25l7.29-28.92a.2.2 0 0 1 .2-.15H77.4c.1 0 .17.06.2.15L91 58.3a.2.2 0 0 1-.2.25H8.2a.2.2 0 0 1-.19-.15L3.48 39.35a.2.2 0 0 1 .2-.25h6.34a.2.2 0 0 0 .2-.15l14-55.37a.2.2 0 0 1 .2-.16h58.57c.11 0 .2.1.2.2v11.2a.2.2 0 0 1-.2.2H33.41a.2.2 0 0 0-.2.15L20.01 46.7a.2.2 0 0 0 .2.25h55.85a.2.2 0 0 0 .2-.25l-8.29-31.45a.2.2 0 0 0-.2-.15Zm174.92 95.14h15.9a.2.2 0 0 0 .2-.15l2.19-8.27a.2.2 0 0 0-.2-.25h-8.9a.2.2 0 0 1-.19-.15l-2.77-11.22a.2.2 0 0 1 .2-.25h26.32a.2.2 0 0 1 .2.25l-7.3 28.92a.2.2 0 0 1-.19.15h-35.08a.2.2 0 0 1-.2-.15l-13.4-52.07a.2.2 0 0 1 .2-.25h82.59c.1 0 .17.06.2.15L307 86a.2.2 0 0 1-.2.25h-6.34a.2.2 0 0 0-.2.15l-14 55.38a.2.2 0 0 1-.2.15H227.5a.2.2 0 0 1-.2-.2v-11.2c0-.1.09-.2.2-.2h49.58a.2.2 0 0 0 .2-.14l13.2-51.54a.2.2 0 0 0-.2-.25h-55.85a.2.2 0 0 0-.2.25l8.29 31.45c.02.09.1.15.2.15ZM206.16 1.54v14.15a.2.2 0 0 1-.15.2l-7.34 1.94a.2.2 0 0 1-.25-.19v-7.9a.2.2 0 0 0-.15-.19L188.3 7.1a.2.2 0 0 0-.25.2v23.43c0 .13.12.23.25.2l25.76-6.5a.2.2 0 0 0 .16-.19V-7.05a.2.2 0 0 0-.15-.2L167.63-19.2a.2.2 0 0 0-.25.2v73.67c0 .1.07.17.16.2l16.95 4.03a.2.2 0 0 0 .25-.2v-5.6c0-.1.06-.17.15-.2l49.39-12.49a.2.2 0 0 0 .15-.2v-52.23a.2.2 0 0 0-.2-.2h-9.94a.2.2 0 0 0-.2.2v44.21a.2.2 0 0 1-.16.2l-45.95 11.77a.2.2 0 0 1-.25-.2v-49.8a.2.2 0 0 1 .25-.19l28.03 7.38c.09.03.15.1.15.2ZM105 123.8v-14.15c0-.1.06-.17.15-.2l7.34-1.94a.2.2 0 0 1 .25.2v7.89c0 .09.06.17.15.19l9.97 2.46a.2.2 0 0 0 .25-.19V94.62a.2.2 0 0 0-.25-.2l-25.77 6.5a.2.2 0 0 0-.15.19v31.28c0 .1.06.18.15.2l46.43 11.95a.2.2 0 0 0 .25-.2V70.67a.2.2 0 0 0-.15-.2l-16.95-4.03a.2.2 0 0 0-.25.2v5.61a.2.2 0 0 1-.15.2L76.88 84.94a.2.2 0 0 0-.15.2v52.24c0 .1.09.2.2.2h9.94a.2.2 0 0 0 .2-.2V93.16c0-.1.07-.17.15-.2l45.96-11.77a.2.2 0 0 1 .25.2v49.8a.2.2 0 0 1-.25.19L105.15 124a.2.2 0 0 1-.15-.2Z"/>
    <path fill="#3A67C6" d="M58.8 123.8v-14.15a.2.2 0 0 0-.15-.2l-7.34-1.94a.2.2 0 0 0-.25.2v7.89a.2.2 0 0 1-.15.19l-9.97 2.46a.2.2 0 0 1-.25-.19V94.62a.2.2 0 0 1 .25-.2l25.77 6.5c.08.02.15.1.15.19v31.28a.2.2 0 0 1-.15.2l-46.44 11.95a.2.2 0 0 1-.25-.2V70.67c0-.1.07-.17.16-.2l16.95-4.03a.2.2 0 0 1 .25.2v5.61c0 .1.06.18.15.2l49.39 12.49c.09.02.15.1.15.2v52.24a.2.2 0 0 1-.2.2h-9.95a.2.2 0 0 1-.2-.2V93.16a.2.2 0 0 0-.15-.2L30.62 81.2a.2.2 0 0 0-.25.2v49.8c0 .13.12.22.25.19L58.65 124a.2.2 0 0 0 .15-.2ZM252.36 1.54v14.15c0 .1.06.17.15.2l7.34 1.94a.2.2 0 0 0 .25-.2V9.76c0-.1.06-.18.15-.2l9.97-2.46a.2.2 0 0 1 .25.2v23.43a.2.2 0 0 1-.25.2l-25.77-6.5a.2.2 0 0 1-.15-.19V-7.05c0-.1.06-.17.15-.2l46.43-11.95a.2.2 0 0 1 .25.2v73.67a.2.2 0 0 1-.15.2l-16.95 4.03a.2.2 0 0 1-.25-.2v-5.6a.2.2 0 0 0-.15-.2l-49.4-12.49a.2.2 0 0 1-.14-.2v-52.23c0-.12.09-.2.2-.2h9.94c.11 0 .2.08.2.2v44.21c0 .1.07.17.15.2l45.96 11.77a.2.2 0 0 0 .25-.2v-49.8a.2.2 0 0 0-.25-.19L252.5 1.34a.2.2 0 0 0-.15.2Z"/>
  </g>
  <defs>
    <clipPath id="a">
      <path fill="#fff" d="M0 0h310v120H0z"/>
    </clipPath>
  </defs>
</svg>
